<?xml version="1.0" encoding="iso-8859-1"?>
<!-- Generator: Adobe Illustrator 19.0.0, SVG Export Plug-In . SVG Version: 6.00 Build 0)  -->
<svg version="1.1" id="Capa_1" xmlns="http://www.w3.org/2000/svg" xmlns:xlink="http://www.w3.org/1999/xlink" x="0px" y="0px"
	 viewBox="0 0 512 512" style="enable-background:new 0 0 512 512;" xml:space="preserve">
<g>
	<g>
		<g>
			<path d="M409.875,45.714c7.974-0.013,15.883,1.426,23.342,4.246l-3.587-18.326c-0.266-0.61-0.463-1.248-0.585-1.902
				C425.804,12.466,410.711-0.034,393.143,0H118.857c-17.568-0.034-32.662,12.466-35.902,29.733c-0.073,0.387-0.17,0.768-0.29,1.143
				l-3.713,18.97c7.355-2.741,15.141-4.14,22.99-4.132H409.875z"/>
			<path d="M452.482,320c11.985-0.055,23.86,2.279,34.932,6.868L437.81,73.432c-7.999-6.171-17.832-9.491-27.935-9.432H101.942
				c-9.946-0.062-19.634,3.164-27.557,9.177L24.767,326.693c10.974-4.476,22.721-6.75,34.572-6.693H452.482z M256,82.286
				c75.621,0,137.143,49.219,137.143,109.714S331.621,301.714,256,301.714S118.857,252.496,118.857,192S180.379,82.286,256,82.286z"
				/>
			<path d="M256,283.429c65.54,0,118.857-41.013,118.857-91.429S321.54,100.571,256,100.571S137.143,141.585,137.143,192
				S190.46,283.429,256,283.429z M173.714,197.389c-0.269-13.6,8.363-25.785,21.281-30.045c-0.418-21.02,16.06-38.509,37.067-39.344
				c11.337,0.108,21.962,5.544,28.683,14.674c4.373-1.917,9.095-2.911,13.871-2.92c16.15,0.296,30.261,10.985,34.92,26.451
				c16.305,1.32,28.837,14.983,28.748,31.34c-0.089,16.358-12.769,29.883-29.087,31.026H202.804
				C186.177,227.956,173.175,214.018,173.714,197.389z"/>
			<path d="M475.429,420.572H36.571C16.383,420.595,0.023,436.955,0,457.143v18.286C0.023,495.617,16.383,511.977,36.571,512
				h274.286v-45.714c0-5.049,4.093-9.143,9.143-9.143c5.049,0,9.143,4.093,9.143,9.143V512h18.286v-45.714
				c0-5.049,4.093-9.143,9.143-9.143c5.049,0,9.143,4.093,9.143,9.143V512H384v-45.714c0-5.049,4.093-9.143,9.143-9.143
				s9.143,4.093,9.143,9.143V512h18.286v-45.714c0-5.049,4.093-9.143,9.143-9.143s9.143,4.093,9.143,9.143V512h36.571
				c20.188-0.023,36.548-16.383,36.571-36.571v-18.286C511.977,436.955,495.617,420.595,475.429,420.572z M64,493.714
				c-15.148,0-27.429-12.28-27.429-27.429c0-15.148,12.28-27.429,27.429-27.429s27.429,12.28,27.429,27.429
				C91.412,481.427,79.142,493.698,64,493.714z"/>
			<path d="M475.429,402.286c9.985,0.006,19.777,2.757,28.303,7.954l-11.694-59.745c-11.595-8.083-25.422-12.351-39.556-12.209
				H59.339c-13.973-0.157-27.654,4.004-39.173,11.915L8.435,410.138c8.488-5.132,18.217-7.847,28.136-7.852H475.429z"/>
			<path d="M202.804,210.286h106.393c6.251-1.113,10.803-6.548,10.803-12.897c0-6.349-4.553-11.784-10.803-12.897
				c-1.118-0.006-2.226,0.211-3.259,0.638c-2.691,1.126-5.757,0.901-8.254-0.607c-2.497-1.508-4.124-4.117-4.38-7.023
				c-0.242-10.351-8.355-18.8-18.688-19.46c-4.105,0.025-8.06,1.546-11.125,4.277c-2.234,1.925-5.26,2.655-8.126,1.96
				c-2.866-0.695-5.221-2.729-6.325-5.464c-2.573-7.248-9.292-12.206-16.977-12.527c-11.149,0.878-19.521,10.555-18.786,21.714
				c0.001,1.853,0.205,3.7,0.607,5.509c0.66,2.969-0.199,6.072-2.292,8.278c-2.093,2.207-5.146,3.228-8.146,2.726h-0.036
				c-6.404,0.803-11.255,6.172-11.407,12.625C191.852,203.59,196.445,209.182,202.804,210.286z"/>
			<circle cx="64" cy="466.286" r="9.143"/>
		</g>
	</g>
</g>
<g>
</g>
<g>
</g>
<g>
</g>
<g>
</g>
<g>
</g>
<g>
</g>
<g>
</g>
<g>
</g>
<g>
</g>
<g>
</g>
<g>
</g>
<g>
</g>
<g>
</g>
<g>
</g>
<g>
</g>
</svg>
